<?xml version="1.0" standalone="no"?>
<!DOCTYPE svg PUBLIC "-//W3C//DTD SVG 20010904//EN"
 "http://www.w3.org/TR/2001/REC-SVG-20010904/DTD/svg10.dtd">
<svg version="1.0" xmlns="http://www.w3.org/2000/svg"
 width="1024.000000pt" height="1024.000000pt" viewBox="0 0 1024.000000 1024.000000"
 preserveAspectRatio="xMidYMid meet">

<g transform="translate(0.000000,1024.000000) scale(0.100000,-0.100000)"
fill="#000000" stroke="none">
<path d="M5030 9439 c-185 -50 -220 -63 -295 -111 -167 -106 -444 -301 -440
-309 3 -4 0 -11 -6 -15 -8 -4 -9 -3 -5 4 4 7 5 12 2 12 -6 0 -544 -358 -781
-520 -111 -75 -164 -116 -125 -95 9 5 12 4 7 -1 -5 -5 -16 -9 -25 -9 -9 0 -16
-5 -15 -12 2 -7 -3 -10 -11 -7 -8 3 -17 0 -22 -7 -5 -8 -3 -10 7 -4 8 5 10 4
6 0 -4 -5 -14 -10 -21 -11 -20 -3 -66 -35 -66 -46 0 -5 -4 -7 -9 -3 -6 3 -14
-3 -20 -12 -6 -10 -11 -15 -11 -10 0 4 -21 -8 -47 -26 -58 -40 -667 -447 -811
-541 -138 -91 -169 -120 -198 -185 l-25 -56 2 -1575 c1 -866 5 -1672 8 -1790
l6 -215 29 -14 c32 -15 77 -46 471 -327 154 -110 350 -249 435 -309 568 -399
1085 -782 1112 -822 22 -34 23 -82 3 -109 -17 -22 -21 -199 -5 -209 6 -4 10
-121 10 -317 l0 -311 86 -85 c47 -47 119 -128 160 -179 41 -51 85 -98 97 -105
12 -6 68 -14 125 -16 l102 -5 52 -71 c28 -39 56 -74 62 -79 6 -4 108 -6 226
-5 l216 3 74 78 c74 76 76 77 126 77 28 0 78 3 112 6 l61 7 171 166 c94 91
179 180 190 196 19 28 20 48 20 332 0 255 2 304 15 317 11 10 15 37 15 95 0
71 -2 82 -21 91 -17 9 -20 19 -17 58 3 46 4 48 90 112 48 36 97 72 108 80 34
23 184 133 216 157 16 12 56 41 89 66 134 99 310 231 490 367 105 79 228 173
275 207 47 35 92 69 100 76 8 7 49 37 90 67 41 30 80 59 86 65 7 5 65 48 130
95 212 153 238 174 245 201 12 48 15 3589 3 3597 -6 4 -15 27 -19 51 -4 24
-15 52 -24 62 -21 22 -227 162 -883 599 -295 197 -561 376 -590 398 -79 58
-870 584 -1111 738 -49 31 -98 57 -110 58 -12 1 -21 8 -19 15 1 7 -2 10 -8 6
-14 -9 -42 14 -33 28 3 6 1 7 -5 3 -7 -4 -27 4 -45 18 -36 28 -52 30 -107 15z
m116 -157 c43 -27 147 -93 229 -148 83 -55 222 -146 310 -201 88 -55 252 -161
365 -235 113 -74 297 -193 410 -265 113 -72 327 -213 475 -314 398 -270 696
-471 817 -551 l106 -71 -128 -74 c-71 -40 -134 -73 -140 -73 -15 0 -263 164
-377 249 -80 58 -83 63 -83 101 0 36 -4 43 -57 82 -90 67 -620 419 -701 467
-41 24 -77 52 -82 65 -5 14 -125 100 -320 230 -172 114 -323 213 -336 218 -20
10 -28 7 -50 -13 -23 -22 -27 -22 -48 -9 -204 129 -506 339 -510 355 -8 27 -7
200 0 219 10 26 36 19 120 -32z m-506 -47 c-7 -8 -17 -15 -23 -15 -6 0 -2 7 9
15 25 19 30 19 14 0z m175 -61 c6 -36 28 -65 73 -96 36 -24 21 -49 -61 -103
-39 -27 -196 -137 -347 -245 -416 -297 -629 -445 -1028 -715 -63 -42 -149 -98
-192 -123 -43 -26 -158 -102 -257 -170 -335 -232 -465 -320 -497 -337 l-31
-17 -108 73 c-59 41 -105 79 -104 84 2 6 53 42 113 82 60 39 224 149 364 245
140 95 331 225 425 289 93 63 284 193 423 288 360 245 1130 751 1166 767 46
20 53 17 61 -22z m-395 -85 c-27 -21 -71 -47 -55 -32 19 18 68 53 74 53 3 0
-5 -9 -19 -21z m-70 -44 c0 -2 -10 -9 -22 -15 -22 -11 -22 -10 -4 4 21 17 26
19 26 11z m883 -290 c111 -75 310 -211 442 -302 132 -90 319 -217 415 -281
l175 -117 3 -1100 c2 -605 7 -1460 12 -1900 l10 -799 -41 -121 c-79 -233 -229
-746 -287 -980 l-8 -30 -197 -3 -198 -2 4 372 c2 205 7 383 11 395 7 19 -5 34
-78 107 -47 46 -86 90 -86 96 0 6 4 19 9 28 5 10 23 98 41 197 32 191 83 455
156 825 38 193 60 287 124 535 6 22 33 153 60 290 l50 250 52 46 52 46 -29 6
c-71 14 -121 -63 -159 -244 -42 -203 -95 -408 -112 -433 -8 -13 -32 -99 -54
-192 -42 -182 -214 -1045 -226 -1132 -3 -29 -10 -55 -15 -58 -5 -3 -32 13 -60
36 -28 22 -47 40 -42 40 6 0 15 12 22 26 12 27 45 283 57 446 7 96 6 98 -21
134 l-28 36 7 247 c10 346 24 571 46 746 27 201 26 257 -4 322 -36 76 -92 128
-156 143 -54 13 -147 8 -180 -10 -17 -9 -18 -1 -24 123 -3 72 -10 600 -16
1172 -6 572 -13 1065 -16 1095 -6 52 -5 56 23 73 15 9 36 15 46 13 10 -3 109
-66 220 -141z m-293 -1173 l12 -1171 -34 -47 c-18 -25 -40 -55 -48 -67 -10
-14 -16 -63 -21 -171 -8 -177 -7 -165 -20 -146 -8 11 -9 9 -2 -10 4 -14 8
-293 8 -620 0 -569 1 -601 23 -733 12 -77 22 -167 22 -202 l0 -63 -57 -51
c-31 -28 -60 -51 -64 -51 -3 0 -9 19 -12 43 -4 23 -18 114 -32 202 -14 88 -46
297 -70 465 -47 318 -89 570 -105 630 -19 67 -69 406 -80 535 -6 72 -13 141
-16 154 l-5 24 -15 -28 c-20 -38 -18 -106 11 -360 14 -121 30 -292 35 -380 10
-138 42 -406 105 -875 44 -319 88 -543 116 -582 10 -15 19 -32 19 -37 0 -6
-24 -28 -52 -50 -29 -22 -65 -50 -80 -61 l-28 -22 0 -394 0 -394 -55 0 -55 0
-1 388 c-1 1016 -16 2169 -28 2188 -10 15 -11 -8 -7 -116 3 -74 7 -656 8
-1293 3 -1020 1 -1159 -12 -1168 -9 -6 -44 -8 -86 -4 l-72 6 -28 -35 -29 -35
-145 105 c-80 59 -200 151 -267 205 -68 54 -158 119 -202 144 -57 33 -82 54
-91 76 -29 69 -273 250 -449 332 -47 22 -113 58 -146 81 -33 22 -109 70 -170
106 l-110 66 -3 1527 c-2 1450 -1 1527 15 1527 10 0 95 66 188 146 104 89 209
169 270 205 55 33 132 83 172 112 39 29 109 73 155 100 46 26 112 70 148 98
36 27 124 90 195 139 229 157 350 243 492 346 76 56 171 122 211 147 39 26
105 68 145 93 39 26 103 72 141 103 38 31 94 72 125 92 l56 35 6 -41 c4 -23
12 -568 19 -1213z m-1020 1173 c0 -2 -20 -18 -45 -35 -25 -17 -45 -29 -45 -26
0 4 80 64 88 66 1 0 2 -2 2 -5z m-160 -109 c0 -2 -75 -53 -167 -113 -193 -126
-193 -126 -193 -120 0 6 347 237 356 237 2 0 4 -2 4 -4z m100 -450 c-22 -19
-157 -111 -145 -98 12 13 147 111 155 112 2 0 -2 -6 -10 -14z m-190 -130 c0
-2 -8 -10 -17 -17 -16 -13 -17 -12 -4 4 13 16 21 21 21 13z m-40 -30 c0 -2 -8
-10 -17 -17 -16 -13 -17 -12 -4 4 13 16 21 21 21 13z m2793 -94 c235 -165 741
-500 985 -652 l62 -39 0 -1580 0 -1579 -142 -108 c-79 -59 -233 -176 -343
-260 -111 -83 -252 -184 -315 -224 -63 -40 -189 -127 -280 -193 -263 -193
-311 -227 -324 -227 -6 1 -24 11 -40 24 l-28 24 27 103 c55 214 129 462 208
704 l82 250 0 500 c0 275 -4 1138 -9 1918 -5 779 -6 1417 -2 1417 4 0 57 -35
119 -78z m257 13 c96 -56 190 -117 190 -123 0 -2 -10 2 -22 10 -13 8 -74 45
-135 82 -62 38 -113 70 -113 73 0 5 -1 6 80 -42z m-4230 -189 c0 -2 -8 -10
-17 -17 -16 -13 -17 -12 -4 4 13 16 21 21 21 13z m-40 -31 c0 -2 -35 -28 -77
-56 -43 -28 -71 -44 -63 -36 12 13 127 93 138 96 1 1 2 -1 2 -4z m-73 -336
c48 -34 96 -68 106 -77 16 -14 17 -103 17 -1598 0 -899 -4 -1593 -9 -1606 -6
-15 -42 -42 -102 -76 l-94 -52 -6 73 c-7 83 -11 3397 -4 3397 2 0 44 -28 92
-61z m478 18 c-21 -18 -69 -58 -105 -90 -79 -71 -100 -84 -100 -62 0 8 21 30
47 48 25 17 78 55 117 84 79 58 102 69 41 20z m5064 -964 c0 -1335 -13 -2441
-27 -2455 -13 -13 -83 14 -105 40 -8 10 -14 75 -17 206 l-6 191 -2 -192 c-1
-106 -5 -193 -9 -193 -22 1 -48 33 -47 58 1 21 0 22 -3 5 -5 -27 -5 -26 -36
-12 l-25 11 2 1576 1 1576 30 16 c16 8 35 21 41 29 11 14 182 119 197 120 4 1
7 -439 6 -976z m60 749 c-1 -114 -4 -250 -8 -302 -5 -61 -7 16 -7 212 1 168 4
304 9 301 4 -2 6 -97 6 -211z m38 85 c-2 -23 -3 -1 -3 48 0 50 1 68 3 42 2
-26 2 -67 0 -90z m-2777 -910 c52 -25 85 -77 96 -147 4 -25 2 -126 -5 -225
-22 -335 -30 -489 -37 -752 -4 -145 -9 -263 -12 -263 -3 0 -31 7 -62 16 l-56
15 4 316 4 316 -23 -6 c-13 -4 -34 -7 -46 -7 l-23 0 0 -314 0 -313 -67 -18
c-38 -10 -74 -25 -82 -34 -11 -13 -12 83 -7 614 4 347 11 647 16 668 10 44 52
109 85 131 60 40 137 41 215 3z m21 -1467 c17 -10 19 -23 19 -149 0 -76 -3
-186 -7 -244 l-6 -107 -133 0 -133 0 -6 43 c-3 23 -5 134 -3 247 l3 205 30 6
c50 11 215 10 236 -1z m-37 -624 c64 -27 76 -47 76 -131 0 -68 -2 -75 -20 -75
-17 0 -20 7 -20 44 0 62 -31 86 -112 86 -107 0 -168 -39 -168 -107 0 -43 0
-43 -35 -43 l-35 0 0 83 0 83 38 19 c106 52 212 68 276 41z m-354 -167 c0 -46
-4 -79 -10 -79 -6 0 -10 35 -10 86 0 54 4 83 10 79 6 -3 10 -42 10 -86z m340
-8 c0 -24 -5 -29 -31 -35 -17 -3 -56 -6 -85 -6 -53 0 -54 1 -54 29 0 36 7 39
98 40 l72 1 0 -29z m-2270 -334 c58 -42 193 -139 300 -215 185 -131 297 -209
645 -448 83 -57 193 -136 245 -176 l95 -73 3 -124 3 -123 -38 23 c-51 30 -271
182 -543 374 -124 88 -297 209 -385 270 -756 525 -905 631 -905 645 0 8 156
108 189 121 8 3 69 -35 150 -96 75 -55 183 -135 241 -178z m4786 235 c21 -15
61 -40 87 -56 27 -15 51 -34 54 -42 6 -17 21 -6 -222 -183 -104 -76 -319 -234
-476 -352 -158 -118 -374 -278 -480 -356 -107 -78 -277 -203 -378 -277 -101
-75 -186 -134 -189 -132 -2 3 -3 69 -3 147 2 106 5 145 15 153 65 52 297 223
361 266 109 73 324 228 535 384 96 71 207 152 245 181 135 99 261 194 325 244
36 27 70 50 76 51 6 0 29 -13 50 -28z m-2331 -467 l0 -425 -334 0 -334 0 6
386 c3 212 7 387 9 389 2 2 140 17 307 34 168 17 307 33 309 36 3 3 12 5 21 5
14 0 16 -44 16 -425z m101 337 c7 -5 13 -128 17 -384 l7 -378 -30 0 -30 0 0
385 c0 393 1 401 36 377z m-786 -392 c0 -247 -4 -380 -10 -380 -6 0 -10 113
-10 319 0 283 6 441 16 441 2 0 4 -171 4 -380z m2019 -33 c-21 -17 -208 -155
-224 -165 -36 -24 65 61 143 120 42 31 78 55 81 53 2 -3 2 -6 0 -8z m-249
-181 c0 -2 -8 -10 -17 -17 -16 -13 -17 -12 -4 4 13 16 21 21 21 13z m-40 -30
c0 -2 -8 -10 -17 -17 -16 -13 -17 -12 -4 4 13 16 21 21 21 13z m-40 -30 c0 -2
-8 -10 -17 -17 -16 -13 -17 -12 -4 4 13 16 21 21 21 13z m-404 -250 c11 -4 14
-42 14 -188 0 -101 -4 -188 -8 -194 -8 -12 -1513 -27 -1592 -16 l-45 7 -3 197
-2 197 27 3 c47 5 1594 0 1609 -6z m4 -541 l0 -95 -462 -2 c-455 -3 -463 -3
-463 -23 0 -20 8 -20 463 -23 l462 -2 0 -89 0 -88 -222 -6 c-123 -4 -360 -12
-528 -17 -168 -5 -438 -10 -601 -9 l-296 0 -6 82 c-4 45 -7 117 -7 160 l0 77
178 1 c97 1 209 4 247 8 61 5 70 9 70 26 0 19 -8 20 -245 25 l-245 5 -3 27 -3
28 358 3 c197 1 571 3 831 5 l472 2 0 -95z m0 -440 l0 -65 -452 0 c-287 1
-455 -3 -461 -9 -7 -7 -6 -15 3 -26 11 -13 68 -15 453 -15 l440 0 -6 -37 c-8
-44 -31 -70 -72 -77 -16 -3 -31 -10 -33 -14 -1 -5 -13 -29 -25 -53 l-22 -44
-656 -3 -655 -2 -57 64 c-32 36 -66 68 -77 71 -19 6 -20 15 -20 126 l0 119
243 0 c351 -1 919 11 1355 28 l42 2 0 -65z m0 -340 l0 -85 -822 2 -823 3 -3
73 c-4 97 13 97 91 1 l37 -47 678 2 c372 1 682 5 689 9 6 4 24 27 39 52 25 38
69 69 107 74 4 1 7 -37 7 -84z m-130 -217 l-85 -81 -620 2 -620 2 -67 72 c-37
40 -67 75 -68 80 0 4 348 7 773 7 l772 -1 -85 -81z m-702 -138 l557 -1 -28
-24 -28 -25 -377 1 c-207 1 -446 4 -531 8 -149 6 -154 7 -170 31 -15 23 -15
24 2 17 10 -4 269 -7 575 -7z m236 -109 l28 -6 -48 -57 -48 -58 -202 0 -202 0
-41 51 c-23 29 -41 55 -41 60 0 4 15 10 33 12 53 6 490 5 521 -2z"/>
<path d="M4416 7465 c4 -561 10 -1051 14 -1090 4 -38 5 412 2 1000 -3 589 -9
1079 -13 1090 -5 11 -6 -435 -3 -1000z"/>
<path d="M7684 7005 c0 -93 2 -133 3 -88 2 45 2 122 0 170 -1 48 -3 12 -3 -82z"/>
<path d="M7702 7065 c0 -16 2 -22 5 -12 2 9 2 23 0 30 -3 6 -5 -1 -5 -18z"/>
<path d="M7682 6785 c0 -16 2 -22 5 -12 2 9 2 23 0 30 -3 6 -5 -1 -5 -18z"/>
<path d="M7682 6470 c0 -14 2 -19 5 -12 2 6 2 18 0 25 -3 6 -5 1 -5 -13z"/>
<path d="M7702 6425 c0 -16 2 -22 5 -12 2 9 2 23 0 30 -3 6 -5 -1 -5 -18z"/>
<path d="M7715 5155 c0 -390 1 -552 2 -358 2 193 2 513 0 710 -1 197 -2 39 -2
-352z"/>
</g>
</svg>
